<?xml version="1.0" standalone="no"?>
<!DOCTYPE svg PUBLIC "-//W3C//DTD SVG 20010904//EN"
 "http://www.w3.org/TR/2001/REC-SVG-20010904/DTD/svg10.dtd">
<svg version="1.0" xmlns="http://www.w3.org/2000/svg"
 width="531.000000pt" height="596.000000pt" viewBox="0 0 531.000000 596.000000"
 preserveAspectRatio="xMidYMid meet">

<g transform="translate(0.000000,596.000000) scale(0.100000,-0.100000)"
fill="#000000" stroke="none">
<path d="M3135 4742 c-79 -38 -104 -92 -105 -229 l0 -93 -507 1 c-280 0 -526
4 -548 8 -22 5 -31 10 -20 11 11 1 15 4 8 7 -7 2 -13 11 -13 19 0 8 -4 14 -9
14 -5 0 -13 14 -16 31 -5 20 -10 27 -15 20 -4 -7 -12 12 -19 46 -23 121 -88
173 -214 173 -158 0 -217 -65 -217 -239 l0 -90 -188 -3 -189 -3 -48 -30 c-60
-37 -106 -96 -134 -170 -21 -55 -21 -64 -21 -1234 0 -1153 0 -1179 20 -1236
29 -84 60 -133 124 -193 76 -72 144 -101 259 -113 50 -5 381 -9 733 -9 l642 1
67 -70 c117 -121 276 -217 442 -267 78 -24 106 -27 248 -28 189 -1 260 13 404
80 252 118 442 341 528 621 24 80 27 103 27 258 1 136 -3 185 -18 245 -42 166
-123 314 -240 437 l-65 70 -3 689 -3 689 -28 57 c-37 76 -103 147 -169 183
-51 28 -60 30 -218 36 -91 3 -150 6 -132 7 17 1 32 7 32 13 0 5 -4 7 -10 4 -9
-6 -14 8 -11 28 1 5 -3 6 -9 2 -6 -3 -10 4 -11 17 0 21 -1 22 -8 3 -6 -14 -11
1 -19 53 -12 84 -32 123 -85 166 -35 28 -46 31 -120 34 -64 2 -91 -2 -122 -16z
m105 -24 c0 -4 -7 -8 -15 -8 -23 0 -85 -32 -79 -42 3 -4 2 -8 -3 -8 -11 0 -30
-45 -40 -95 -5 -22 -8 -100 -7 -173 0 -73 -2 -135 -6 -137 -4 -2 -7 17 -8 43
0 26 -1 82 -2 124 -1 42 1 81 5 87 3 6 3 11 -2 11 -7 0 -8 15 -4 100 2 38 50
90 91 99 45 9 70 9 70 -1z m30 -2 c0 -3 -4 -8 -10 -11 -5 -3 -10 -1 -10 4 0 6
5 11 10 11 6 0 10 -2 10 -4z m-1632 -18 c-16 -5 -28 -13 -28 -17 0 -4 -11 -13
-25 -19 -14 -7 -35 -33 -49 -61 -22 -46 -23 -60 -22 -194 1 -79 -1 -153 -5
-163 -4 -10 -9 51 -10 136 -1 85 -3 164 -4 175 -3 55 18 97 63 126 27 17 59
29 76 28 l31 -1 -27 -10z m452 -318 c0 -5 -5 -10 -11 -10 -5 0 -7 5 -4 10 3 6
8 10 11 10 2 0 4 -4 4 -10z m140 0 c0 -6 -23 -9 -52 -8 l-53 1 50 7 c28 4 51
8 53 8 1 1 2 -2 2 -8z m130 6 c0 -3 -4 -8 -10 -11 -5 -3 -10 -1 -10 4 0 6 5
11 10 11 6 0 10 -2 10 -4z m30 -6 c0 -5 -5 -10 -11 -10 -5 0 -7 5 -4 10 3 6 8
10 11 10 2 0 4 -4 4 -10z m-1052 -5 c-2 -3 -49 -7 -104 -9 -111 -4 -174 -24
-194 -61 -7 -13 -22 -26 -34 -30 -14 -4 -17 -8 -8 -12 10 -4 8 -9 -7 -20 -12
-8 -21 -23 -21 -34 0 -10 -4 -19 -8 -19 -5 0 -13 -12 -18 -27 -16 -47 -22 -11
-6 41 17 59 99 146 153 163 33 11 257 18 247 8z m989 -1 c-3 -3 -12 -4 -19 -1
-8 3 -5 6 6 6 11 1 17 -2 13 -5z m-807 -164 c0 -5 -4 -10 -10 -10 -5 0 -10 5
-10 10 0 6 5 10 10 10 6 0 10 -4 10 -10z m-585 -90 c3 -5 1 -10 -4 -10 -6 0
-11 5 -11 10 0 6 2 10 4 10 3 0 8 -4 11 -10z m2822 -374 l28 -24 3 -395 3
-395 -48 18 c-65 24 -221 50 -305 50 -438 0 -822 -296 -936 -719 -22 -85 -25
-115 -25 -261 0 -133 4 -179 20 -238 11 -40 17 -74 15 -77 -11 -10 -1161 -5
-1211 6 -66 14 -123 57 -150 112 l-22 46 1 912 c0 701 3 918 13 938 6 14 23
31 37 38 20 10 290 13 1287 13 l1262 0 28 -24z m-2802 -676 c-3 -5 -11 -10
-16 -10 -6 0 -7 5 -4 10 3 6 11 10 16 10 6 0 7 -4 4 -10z m-12 -65 c4 -8 3
-16 -1 -19 -4 -3 -9 4 -9 15 -2 23 3 25 10 4z m2 -45 c3 -5 1 -10 -4 -10 -6 0
-11 5 -11 10 0 6 2 10 4 10 3 0 8 -4 11 -10z m15 -35 c0 -2 -7 -5 -15 -9 -9
-3 -15 0 -15 9 0 9 6 12 15 9 8 -4 15 -7 15 -9z m-16 -57 c-1 -13 -3 -26 -3
-30 -1 -5 -5 -8 -9 -8 -5 0 -7 14 -4 30 5 35 20 41 16 8z m1 -68 c-3 -5 -11
-10 -16 -10 -6 0 -7 5 -4 10 3 6 11 10 16 10 6 0 7 -4 4 -10z m15 -20 c0 -5
-10 -10 -22 -9 -22 0 -22 1 -3 9 11 5 21 9 23 9 1 1 2 -3 2 -9z m9 -23 c-2 -1
-14 -11 -26 -21 -20 -16 -23 -17 -23 -3 0 8 8 18 18 20 21 6 37 8 31 4z m51
-11 c0 -2 -8 -10 -17 -17 -16 -13 -17 -12 -4 4 13 16 21 21 21 13z m2570 -12
c269 -63 486 -294 536 -571 46 -256 -38 -506 -228 -677 -210 -191 -544 -232
-801 -99 -108 56 -241 192 -295 303 -54 109 -72 181 -79 305 -18 351 220 666
561 740 83 18 227 18 306 -1z m-739 -17 c-10 -9 -11 -8 -5 6 3 10 9 15 12 12
3 -3 0 -11 -7 -18z m-1896 -7 c-10 -11 -20 -18 -23 -15 -7 6 18 35 31 35 5 0
2 -9 -8 -20z m14 -22 c-28 -54 -30 -60 -20 -54 5 4 12 2 15 -3 4 -5 -2 -12
-11 -15 -10 -3 -4 -4 12 -2 30 4 30 4 8 -11 -23 -15 -33 -41 -12 -27 6 3 3 -6
-6 -22 -13 -23 -14 -25 -1 -10 23 29 27 16 6 -26 -12 -26 -14 -35 -4 -31 7 2
17 17 23 31 8 24 10 25 10 5 1 -12 -3 -25 -9 -28 -5 -3 -10 -16 -10 -28 0 -20
0 -20 16 -1 14 17 15 17 10 1 -3 -10 -6 -21 -6 -23 0 -2 -7 -4 -15 -4 -8 0
-15 -4 -15 -10 0 -14 12 -12 39 7 l24 16 -23 -31 c-13 -18 -29 -32 -34 -32 -6
0 -4 5 4 11 12 8 12 10 1 7 -8 -2 -15 -13 -16 -25 -2 -21 8 -24 35 -9 8 4 2
-4 -13 -18 -17 -15 -22 -26 -14 -26 7 0 17 3 21 7 3 4 13 8 21 9 12 2 12 -2 5
-17 -13 -24 -22 -25 -13 -1 6 15 5 15 -10 3 -21 -16 -22 -31 -3 -31 10 0 12
-7 8 -22 -3 -12 -1 -19 5 -15 5 3 10 0 10 -8 0 -8 -8 -15 -18 -15 -21 0 -34
16 -19 25 15 9 12 22 -4 22 -8 0 -13 -9 -11 -22 3 -32 15 -47 31 -41 8 3 14 1
14 -5 0 -6 8 -8 18 -5 10 4 8 -1 -7 -13 -23 -18 -23 -19 -5 -24 17 -4 17 -5
-3 -6 -12 0 -25 -6 -29 -12 -4 -7 0 -9 13 -5 15 5 19 1 21 -19 1 -13 -3 -27
-10 -31 -7 -4 -8 -3 -4 4 4 7 3 12 -3 12 -5 0 -13 -4 -16 -10 -3 -5 -1 -10 6
-10 9 0 9 -4 -1 -15 -6 -8 -9 -18 -6 -23 3 -5 -1 -18 -9 -28 -21 -28 -18 -37
5 -17 11 10 20 30 20 45 0 16 4 28 9 28 13 0 22 -28 11 -35 -17 -11 -11 -25 8
-18 15 6 15 5 4 -10 -8 -9 -10 -22 -6 -28 4 -7 3 -9 -3 -6 -12 7 -36 -17 -39
-39 -1 -8 2 -14 6 -14 9 0 -10 -56 -30 -92 -6 -12 -5 -18 6 -22 9 -3 20 -4 25
0 21 13 6 -13 -18 -30 -14 -11 -23 -14 -19 -8 4 7 4 12 -1 12 -12 0 -13 53 -1
68 6 7 8 15 4 19 -3 3 -6 1 -6 -5 0 -7 -4 -12 -9 -12 -14 0 -7 60 9 70 13 9
13 10 0 10 -15 0 -20 53 -7 67 10 9 8 25 -1 19 -5 -3 -7 79 -5 182 3 103 4
196 4 207 0 11 -1 41 -2 66 -1 25 1 51 5 57 4 7 2 12 -5 12 -8 0 -8 4 1 15 9
11 9 15 1 15 -17 0 -4 58 20 92 24 34 34 37 18 6z m31 -8 c0 -5 -8 -10 -17
-10 -15 0 -16 2 -3 10 19 12 20 12 20 0z m1784 -32 c-16 -18 -35 -39 -43 -45
-8 -7 -11 -13 -7 -13 5 0 -8 -16 -29 -35 -23 -22 -35 -41 -31 -51 3 -8 2 -12
-4 -9 -6 3 -10 -3 -10 -14 0 -11 -12 -33 -26 -50 -14 -17 -23 -35 -19 -41 3
-5 0 -10 -8 -10 -10 0 -13 7 -10 20 3 11 9 20 13 20 4 0 7 10 6 23 -1 15 4 22
16 21 9 -1 14 4 11 11 -2 7 4 29 14 48 26 50 122 157 141 157 12 0 8 -8 -14
-32z m-1779 -58 c-3 -5 -12 -10 -18 -10 -7 0 -6 4 3 10 19 12 23 12 15 0z m5
-30 c0 -5 -5 -10 -11 -10 -5 0 -7 5 -4 10 3 6 8 10 11 10 2 0 4 -4 4 -10z m3
-155 c-3 -9 -8 -14 -10 -11 -3 3 -2 9 2 15 9 16 15 13 8 -4z m1568 -58 c-10
-9 -11 -8 -5 6 3 10 9 15 12 12 3 -3 0 -11 -7 -18z m-4 -47 c-7 -17 -13 -26
-15 -21 -3 10 15 51 22 51 3 0 -1 -14 -7 -30z m-1567 -339 c-7 -14 -7 -20 1
-23 7 -2 4 -10 -7 -18 -15 -13 -17 -13 -12 0 3 8 1 23 -4 34 -7 13 -7 16 1 12
6 -4 11 -2 11 3 0 6 5 11 10 11 7 0 7 -6 0 -19z m0 -73 c-11 -12 -22 -19 -25
-16 -7 7 23 38 36 38 5 0 1 -10 -11 -22z m2 -40 c-6 -6 -21 -12 -32 -13 -15
-1 -17 1 -9 12 6 7 21 13 32 13 16 0 18 -3 9 -12z m8 -28 c0 -5 -5 -10 -11
-10 -5 0 -7 5 -4 10 3 6 8 10 11 10 2 0 4 -4 4 -10z m-49 -43 c-10 -9 -11 -8
-5 6 3 10 9 15 12 12 3 -3 0 -11 -7 -18z m49 10 c-27 -15 -36 -14 -25 2 3 6
16 11 28 11 21 0 21 -1 -3 -13z m3140 -1 c0 -3 -4 -8 -10 -11 -5 -3 -10 -1
-10 4 0 6 5 11 10 11 6 0 10 -2 10 -4z m-3159 -49 c-4 -11 -14 -23 -21 -25 -9
-3 -11 1 -7 12 4 9 2 16 -4 16 -19 0 -1 16 20 17 16 1 18 -2 12 -20z m60 -5
c-28 -19 -51 -24 -51 -10 0 6 6 8 13 5 7 -3 21 1 32 9 10 8 21 14 24 13 3 0
-5 -8 -18 -17z m3069 -43 c-11 -19 -28 -51 -37 -71 -9 -21 -19 -38 -23 -38 -5
0 -11 -11 -14 -25 -4 -14 -12 -25 -19 -25 -7 0 -21 -16 -31 -35 -17 -31 -99
-115 -113 -115 -13 0 -52 -38 -45 -45 4 -5 2 -5 -5 -1 -6 3 -14 2 -18 -4 -4
-6 -10 -8 -15 -5 -4 2 -19 -5 -34 -16 -14 -11 -30 -18 -35 -15 -5 4 -16 -1
-24 -9 -9 -8 -23 -15 -32 -15 -9 0 -29 -7 -45 -15 -19 -10 -30 -11 -30 -5 0 6
-5 8 -11 4 -19 -12 -79 -14 -79 -3 0 6 -7 3 -16 -6 -9 -9 -23 -14 -31 -11 -8
3 -23 1 -34 -4 -15 -9 -19 -7 -19 5 0 14 -5 13 -32 -6 l-33 -22 22 23 c16 17
35 24 65 25 24 1 50 5 58 8 8 4 34 9 58 11 103 12 252 80 342 156 29 25 57 44
61 43 4 -2 11 6 14 17 4 11 11 20 16 20 5 0 9 6 9 14 0 8 4 16 8 18 11 4 91
122 94 139 2 8 11 21 21 30 9 9 18 23 18 30 1 9 3 9 6 -2 2 -9 -5 -32 -17 -50z
m-3120 7 c0 -3 -4 -8 -10 -11 -5 -3 -10 -1 -10 4 0 6 5 11 10 11 6 0 10 -2 10
-4z m60 0 c0 -2 -7 -7 -16 -10 -8 -3 -12 -2 -9 4 6 10 25 14 25 6z m126 -43
c-10 -10 -19 5 -10 18 6 11 8 11 12 0 2 -7 1 -15 -2 -18z m34 7 c-8 -5 -17 -7
-19 -4 -3 3 1 9 9 14 8 5 17 7 19 4 3 -3 -1 -9 -9 -14z m327 -5 c156 0 283 -3
283 -7 0 -4 6 -5 14 -2 20 8 516 10 516 3 0 -4 13 -5 29 -4 41 3 49 -22 10
-30 -17 -4 -33 -4 -36 -1 -4 3 -15 -2 -25 -11 -18 -16 -18 -16 -12 0 3 10 1
17 -5 17 -6 0 -11 -6 -11 -12 0 -9 -4 -8 -10 2 -9 13 -13 12 -30 -8 -15 -18
-23 -21 -38 -13 -14 7 -24 6 -38 -4 -26 -19 -42 -19 -23 0 16 16 42 21 68 14
7 -2 15 1 17 6 4 11 -71 13 -82 2 -12 -12 -22 -8 -27 11 -3 11 -5 9 -6 -8 -1
-20 -3 -22 -11 -10 -8 12 -10 12 -10 -5 0 -17 -2 -17 -10 -5 -8 13 -13 13 -41
-3 -31 -17 -31 -17 -26 3 7 27 1 25 -30 -7 -14 -16 -20 -20 -13 -10 11 15 10
17 -9 17 -12 0 -32 -9 -43 -20 -14 -13 -24 -16 -29 -9 -4 7 -8 5 -12 -5 -4 -9
-12 -16 -18 -16 -7 0 -5 8 6 20 10 11 26 20 37 20 12 0 18 7 17 23 -1 16 -2
18 -6 5 -2 -10 -12 -18 -21 -18 -8 0 -27 -10 -41 -22 -23 -22 -23 -21 3 14 15
20 33 39 39 42 8 3 8 5 1 5 -6 1 -19 -8 -29 -19 -20 -22 -55 -27 -55 -7 -1 7
-6 5 -14 -5 -19 -25 -29 -22 -15 5 11 21 11 21 -7 6 -10 -9 -32 -19 -48 -23
-25 -6 -28 -5 -22 11 4 10 -6 4 -24 -14 -34 -37 -54 -45 -24 -11 18 21 18 21
0 15 -14 -6 -17 -4 -12 10 4 10 -12 -2 -34 -27 -23 -25 -32 -32 -21 -16 24 33
21 47 -5 22 -9 -9 -19 -14 -23 -10 -3 4 0 9 7 11 6 3 9 9 6 15 -4 5 -14 2 -24
-7 -11 -10 -25 -15 -32 -12 -8 4 -7 6 5 6 24 1 22 16 -3 18 -11 1 -20 -4 -21
-10 -1 -7 -5 -1 -9 13 -8 24 -8 24 -9 3 -1 -13 -5 -24 -11 -24 -20 -3 -25 -4
-37 -12 -7 -5 -13 -4 -13 2 0 5 6 11 13 14 9 4 9 7 0 17 -10 11 -14 9 -23 -11
-10 -24 -10 -24 -7 4 3 15 0 27 -4 27 -5 0 -9 -5 -9 -11 0 -6 -6 -9 -14 -6
-10 4 -18 -4 -25 -21 -8 -24 -9 -25 -10 -5 -1 26 -22 22 -59 -11 -18 -16 -22
-17 -17 -4 4 9 13 19 21 22 8 3 14 9 14 14 0 10 -49 4 -65 -8 -5 -4 -19 -10
-30 -14 -16 -5 -15 -2 5 14 14 11 21 20 16 20 -5 0 -2 8 5 18 11 14 11 15 -1
5 -8 -7 -18 -13 -23 -13 -4 0 -5 6 -1 13 4 6 -3 3 -16 -8 -13 -11 -20 -14 -15
-6 6 11 4 13 -8 8 -10 -3 -17 -3 -17 1 0 10 74 40 80 33 3 -3 132 -6 287 -6z
m-392 -5 c-3 -5 -12 -10 -18 -10 -7 0 -6 4 3 10 19 12 23 12 15 0z m-75 -24
c0 -2 -7 -7 -16 -10 -8 -3 -12 -2 -9 4 6 10 25 14 25 6z m127 -32 c-3 -3 -12
-4 -19 -1 -8 3 -5 6 6 6 11 1 17 -2 13 -5z m1158 -4 c-3 -5 -11 -10 -16 -10
-6 0 -7 5 -4 10 3 6 11 10 16 10 6 0 7 -4 4 -10z m-1075 -4 c0 -2 -8 -10 -17
-17 -16 -13 -17 -12 -4 4 13 16 21 21 21 13z m120 -6 c0 -5 -5 -10 -11 -10 -5
0 -7 5 -4 10 3 6 8 10 11 10 2 0 4 -4 4 -10z m421 -23 c-16 -16 -25 -1 -10 16
8 8 16 11 18 5 2 -5 -2 -15 -8 -21z m-31 14 c0 -6 -4 -13 -10 -16 -5 -3 -10 1
-10 9 0 9 5 16 10 16 6 0 10 -4 10 -9z m290 -12 c-7 -11 -14 -19 -16 -16 -7 7
7 37 17 37 6 0 5 -9 -1 -21z m-580 -4 c-7 -8 -18 -15 -24 -15 -6 0 -2 7 8 15
25 19 32 19 16 0z m225 5 c-3 -5 -12 -10 -18 -10 -7 0 -6 4 3 10 19 12 23 12
15 0z m295 1 c0 -5 -7 -12 -16 -15 -14 -5 -15 -4 -4 9 14 17 20 19 20 6z m107
3 c-3 -3 -12 -4 -19 -1 -8 3 -5 6 6 6 11 1 17 -2 13 -5z m83 -8 c0 -2 -8 -10
-17 -17 -16 -13 -17 -12 -4 4 13 16 21 21 21 13z m-230 -10 c0 -3 -4 -8 -10
-11 -5 -3 -10 -1 -10 4 0 6 5 11 10 11 6 0 10 -2 10 -4z m-250 -10 c0 -2 -7
-7 -16 -10 -8 -3 -12 -2 -9 4 6 10 25 14 25 6z m1540 -290 c0 -2 -7 -7 -16
-10 -8 -3 -12 -2 -9 4 6 10 25 14 25 6z m75 -6 c-3 -5 -11 -10 -16 -10 -6 0
-7 5 -4 10 3 6 11 10 16 10 6 0 7 -4 4 -10z"/>
<path d="M1433 3490 c-39 -16 -43 -40 -43 -263 l0 -215 31 -26 31 -26 199 0
c202 0 229 4 256 39 9 11 12 77 13 229 l0 214 -29 29 -29 29 -204 -1 c-112 0
-213 -4 -225 -9z"/>
<path d="M2165 3475 l-25 -24 0 -221 c0 -205 1 -221 19 -239 29 -29 66 -33
267 -29 152 3 184 6 207 21 l27 17 0 230 0 229 -26 20 c-25 20 -39 21 -236 21
-208 0 -209 0 -233 -25z"/>
<path d="M2901 3476 c-15 -18 -27 -86 -15 -86 5 0 15 9 21 20 11 16 10 18 -1
14 -11 -4 -13 0 -9 15 6 24 33 50 33 32 0 -6 7 -11 16 -11 8 0 13 4 10 9 -3 5
5 9 19 9 14 0 22 -5 18 -11 -4 -6 -1 -7 8 -1 15 9 87 9 96 0 3 -3 14 -1 24 5
15 7 17 6 13 -6 -4 -8 -9 -16 -13 -16 -47 -10 -58 -10 -116 -5 -46 4 -77 -8
-69 -28 3 -7 -2 -16 -10 -19 -9 -4 -13 -13 -10 -21 3 -8 1 -17 -5 -21 -6 -3
-11 -11 -11 -16 0 -6 5 -7 10 -4 12 8 13 3 0 -29 -7 -20 -6 -24 5 -19 23 8 18
-5 -6 -18 -21 -11 -21 -9 -15 25 4 20 3 36 -2 36 -4 0 -9 -19 -11 -41 -2 -40
-1 -41 24 -37 32 7 32 0 0 -12 -14 -5 -25 -14 -25 -20 0 -6 12 -4 30 5 17 9
30 20 30 25 0 6 6 10 13 10 6 0 0 -11 -15 -24 -15 -13 -24 -27 -21 -30 4 -3
17 4 30 16 19 17 23 19 17 5 -9 -25 11 -21 23 6 13 29 11 43 -6 39 -7 -2 -10
1 -6 7 3 6 12 11 20 11 7 0 16 8 20 18 5 14 4 15 -6 5 -7 -7 -19 -13 -26 -13
-8 0 -6 7 7 20 11 11 20 29 20 39 0 11 5 23 11 27 9 5 10 -1 5 -20 -10 -40 1
-31 24 19 16 34 26 45 43 44 l22 0 -22 -9 c-13 -5 -23 -16 -23 -25 0 -8 -4
-15 -8 -15 -4 0 -9 -10 -9 -22 -1 -13 -7 -24 -13 -26 -5 -2 -7 -9 -4 -14 4 -6
-1 -17 -11 -24 -16 -12 -16 -14 4 -43 13 -18 17 -32 11 -36 -5 -3 -10 -12 -10
-18 0 -7 7 -4 14 6 7 9 24 16 37 15 35 -2 208 12 249 21 39 8 73 53 45 59 -9
2 -12 8 -9 14 5 7 2 8 -5 3 -18 -11 -71 -13 -71 -2 0 5 -8 3 -17 -4 -15 -13
-16 -11 -10 11 5 21 4 23 -6 9 -14 -18 -99 -31 -94 -14 2 5 16 11 30 13 15 2
27 9 27 16 0 8 7 20 16 27 9 7 20 23 25 36 5 13 16 23 26 24 16 0 15 1 -2 9
-13 5 -24 4 -30 -4 -5 -7 -19 -18 -30 -25 -18 -11 -18 -11 5 -5 22 6 23 5 12
-9 -8 -9 -20 -13 -28 -10 -8 3 -14 0 -14 -6 0 -6 -5 -11 -11 -11 -5 0 -7 5 -3
11 4 7 -1 7 -16 -1 -18 -10 -20 -14 -9 -21 9 -5 23 -2 38 8 22 14 24 14 18 -2
-4 -9 -7 -19 -7 -21 0 -2 -11 -4 -25 -4 -14 0 -28 -6 -31 -14 -6 -16 -74 -20
-74 -4 0 5 5 6 12 2 7 -5 8 -3 3 6 -6 10 -11 9 -21 -5 -8 -10 -17 -16 -20 -12
-4 4 -1 14 7 23 7 9 15 26 16 37 2 12 8 26 14 32 7 7 8 4 3 -10 -6 -18 -5 -18
15 3 24 24 36 27 46 12 3 -5 0 -10 -8 -10 -7 0 -24 -12 -36 -27 -17 -18 -19
-24 -7 -20 10 4 16 1 16 -8 0 -17 16 -20 25 -5 3 6 -1 13 -9 16 -20 8 -11 23
20 34 15 6 22 15 18 25 -3 8 -2 15 4 15 5 0 12 9 15 19 4 15 16 20 56 22 28 2
51 0 51 -5 0 -6 5 -5 12 2 14 14 32 16 24 3 -6 -9 51 -7 61 3 3 3 13 0 21 -7
13 -9 14 -9 8 0 -5 9 -2 11 9 7 12 -5 13 -10 4 -20 -6 -7 -16 -12 -21 -11 -6
1 -12 -6 -13 -17 -2 -10 -16 -32 -32 -49 -21 -22 -23 -27 -8 -19 12 6 27 22
35 36 15 28 60 63 60 46 0 -5 -4 -10 -10 -10 -11 0 -64 -79 -57 -86 2 -2 15
13 28 33 13 20 31 39 39 41 11 4 9 -2 -5 -18 -11 -13 -15 -21 -9 -17 7 4 11
-6 10 -31 -1 -20 2 -45 6 -54 4 -9 4 -19 -1 -22 -4 -3 -7 -17 -6 -31 2 -14 -1
-25 -6 -25 -6 0 -7 -5 -3 -12 4 -7 3 -8 -4 -4 -7 4 -14 -3 -18 -18 -5 -20 -12
-24 -42 -24 -34 0 -35 1 -17 14 10 8 16 16 13 19 -2 3 -15 -6 -28 -20 -14 -15
-35 -25 -51 -25 -15 0 -30 -4 -33 -8 -3 -5 16 -5 42 -1 26 4 73 8 104 8 44 1
59 5 66 19 5 9 12 67 15 129 7 120 -2 166 -33 183 -11 6 -130 10 -283 10 -216
0 -267 -3 -276 -14z m289 -4 c0 -5 -9 -19 -20 -32 -11 -13 -20 -18 -20 -12 0
6 -8 9 -17 6 -12 -4 -8 4 10 20 28 26 47 33 47 18z m-167 -52 c-3 -11 -10 -23
-16 -27 -5 -3 -8 -2 -5 3 3 5 8 17 11 27 9 24 16 22 10 -3z m-60 -10 c-3 -12
-8 -19 -11 -16 -5 6 5 36 12 36 2 0 2 -9 -1 -20z m37 10 c0 -5 -5 -10 -11 -10
-5 0 -7 5 -4 10 3 6 8 10 11 10 2 0 4 -4 4 -10z m43 -5 c-3 -9 -8 -14 -10 -11
-3 3 -2 9 2 15 9 16 15 13 8 -4z m-91 -57 c-7 -7 -12 -8 -12 -2 0 6 3 14 7 17
3 4 9 5 12 2 2 -3 -1 -11 -7 -17z m27 -5 c-12 -15 -12 -16 4 -10 26 10 21 1
-15 -24 -27 -19 -30 -20 -18 -4 14 17 13 18 -5 12 -14 -5 -10 0 10 17 35 30
43 32 24 9z"/>
<path d="M3202 3430 c-17 -27 -15 -35 4 -16 8 9 14 21 12 26 -2 6 -9 1 -16
-10z"/>
<path d="M3365 3440 c-3 -5 -13 -7 -23 -4 -13 5 -14 4 -4 -4 11 -7 8 -11 -12
-16 -14 -3 -26 -11 -26 -16 0 -6 -5 -10 -11 -10 -5 0 -7 5 -4 10 3 6 3 10 -2
10 -4 0 -19 -19 -32 -43 l-24 -42 26 28 c14 15 32 27 39 27 9 0 9 -3 0 -12 -7
-7 -12 -16 -12 -21 0 -5 7 -1 16 7 8 9 21 16 28 16 18 0 66 39 66 52 0 7 -11
1 -25 -12 -14 -13 -35 -25 -48 -27 -21 -2 -21 -2 -3 10 29 19 72 56 64 57 -4
0 -9 -4 -13 -10z"/>
<path d="M2880 3359 c0 -11 5 -17 10 -14 6 4 8 10 5 15 -3 4 1 11 7 13 8 3 6
6 -4 6 -12 1 -18 -6 -18 -20z"/>
<path d="M3423 3350 c-3 -11 -9 -20 -12 -20 -4 0 -8 -7 -8 -15 0 -22 33 14 34
37 2 24 -8 23 -14 -2z"/>
<path d="M3310 3335 c-7 -8 -8 -15 -2 -15 5 0 15 7 22 15 7 8 8 15 2 15 -5 0
-15 -7 -22 -15z"/>
<path d="M3339 3323 c-13 -16 -12 -17 4 -4 16 13 21 21 13 21 -2 0 -10 -8 -17
-17z"/>
<path d="M3427 3303 c-12 -12 -7 -19 15 -20 13 -1 18 1 13 5 -6 4 -13 11 -16
15 -3 4 -9 4 -12 0z"/>
<path d="M3356 3224 c-58 -64 -54 -72 7 -11 23 23 45 41 49 40 4 -2 5 4 2 12
-4 8 -7 15 -8 14 0 -1 -23 -25 -50 -55z"/>
<path d="M3010 3251 c0 -6 4 -13 10 -16 6 -3 7 1 4 9 -7 18 -14 21 -14 7z"/>
<path d="M3415 3232 c-22 -30 -31 -67 -14 -57 6 4 8 13 6 20 -3 6 3 19 14 28
10 9 19 21 19 27 0 14 -3 13 -25 -18z"/>
<path d="M2897 3203 c-11 -10 -8 -25 3 -18 6 3 10 1 10 -4 0 -6 -7 -11 -15
-11 -8 0 -15 -4 -15 -10 0 -15 21 -12 41 6 9 8 26 17 36 19 10 2 20 4 23 4 3
1 -1 5 -9 10 -9 6 -21 5 -33 -2 -14 -9 -20 -9 -26 1 -5 7 -11 9 -15 5z"/>
<path d="M3096 3185 c-10 -8 -23 -12 -28 -9 -20 13 -58 -6 -58 -29 -1 -12 -6
-31 -13 -42 -10 -17 -18 -19 -47 -14 -35 6 -35 6 -4 8 38 1 54 17 54 52 0 15
6 30 13 33 6 3 3 5 -8 3 -15 -2 -19 -9 -17 -27 2 -16 -4 -29 -18 -38 -24 -14
-26 -7 -5 14 32 32 0 54 -33 23 -12 -10 -28 -19 -36 -19 -11 0 -13 -10 -9 -42
4 -24 11 -46 17 -51 13 -8 11 -9 130 32 49 17 97 31 107 31 10 0 21 5 25 11 4
8 -1 9 -17 4 -22 -7 -23 -7 -9 11 14 17 13 18 -1 7 -9 -7 -20 -9 -24 -5 -5 4
-5 2 -2 -4 4 -6 -5 -16 -19 -23 -35 -16 -37 -15 -30 19 3 19 2 29 -4 25 -6 -3
-10 -18 -10 -33 0 -21 -5 -28 -20 -29 -23 -2 -27 12 -5 21 8 3 15 13 15 21 0
10 -5 13 -11 9 -7 -4 -10 -1 -7 6 2 8 19 14 36 15 18 1 40 9 50 18 20 21 14
22 -12 2z m-160 -50 c-17 -13 -34 -21 -39 -18 -5 3 5 12 22 19 17 7 31 19 31
25 0 7 3 9 8 5 4 -4 -6 -18 -22 -31z m2 -60 c18 4 24 3 17 -3 -5 -6 -19 -12
-30 -14 -15 -2 -20 3 -22 22 -1 16 0 18 4 7 4 -15 11 -17 31 -12z"/>
<path d="M3140 3190 c-9 -6 -10 -10 -3 -10 6 0 15 5 18 10 8 12 4 12 -15 0z"/>
<path d="M3160 3175 c-16 -19 -1 -19 24 0 16 12 17 15 4 15 -8 0 -21 -7 -28
-15z"/>
<path d="M3220 3170 c-8 -5 -12 -12 -9 -15 4 -3 12 1 19 10 14 17 11 19 -10 5z"/>
<path d="M3103 3160 c-13 -5 -23 -14 -23 -20 0 -6 11 -3 25 6 14 9 25 18 25
20 0 5 0 5 -27 -6z"/>
<path d="M3235 3140 c-3 -5 -1 -10 4 -10 6 0 11 5 11 10 0 6 -2 10 -4 10 -3 0
-8 -4 -11 -10z"/>
<path d="M3190 3130 c-13 -8 -12 -10 3 -10 9 0 17 5 17 10 0 12 -1 12 -20 0z"/>
<path d="M1410 2713 c-20 -26 -21 -34 -18 -341 l3 -314 24 -19 c23 -19 41 -20
438 -17 l415 3 19 24 c18 22 19 43 19 331 0 296 -1 308 -21 334 l-20 26 -419
0 -419 0 -21 -27z m329 10 c6 6 11 7 11 2 0 -6 49 -10 115 -10 63 0 115 4 115
8 0 5 4 5 10 2 5 -3 59 -6 119 -6 93 0 113 -2 133 -19 22 -17 25 -26 22 -79
-1 -33 -5 -64 -8 -70 -3 -5 -1 -11 5 -13 14 -5 3 -78 -11 -78 -6 0 -10 -4 -10
-10 0 -5 6 -7 14 -4 11 4 14 -4 13 -38 -1 -32 -7 -48 -25 -62 -13 -10 -21 -21
-18 -24 3 -3 14 2 24 12 18 16 19 15 18 -23 -1 -27 -7 -45 -21 -56 -20 -16
-20 -16 2 -10 20 5 22 3 18 -24 -2 -17 -11 -38 -19 -47 -9 -8 -14 -20 -11 -25
4 -5 0 -9 -7 -9 -8 0 -9 -3 -3 -8 14 -10 19 -72 5 -72 -6 0 -8 5 -5 10 7 11
-8 14 -19 3 -11 -11 -165 -13 -171 -3 -3 5 -17 5 -32 -1 -15 -5 -33 -7 -40 -4
-20 7 -6 25 15 19 15 -5 15 -4 -1 6 -9 6 -14 16 -11 22 4 7 2 8 -4 4 -7 -4
-12 -13 -12 -20 0 -13 -58 -31 -68 -22 -2 3 10 12 26 20 17 9 34 21 37 26 4 6
-17 -4 -46 -22 -50 -30 -59 -32 -150 -33 -54 -1 -96 3 -93 7 3 4 1 8 -5 8 -5
0 -13 -4 -16 -10 -3 -5 -11 -10 -17 -10 -6 0 -5 7 3 17 13 15 12 15 -9 4 -13
-7 -26 -11 -28 -8 -3 3 -21 1 -40 -3 -18 -4 -34 -4 -34 1 0 4 -7 5 -17 2 -12
-5 -14 -3 -9 8 4 8 1 6 -7 -4 -15 -18 -34 -7 -22 13 3 6 -1 10 -9 10 -9 0 -17
3 -17 8 -1 4 -3 136 -5 294 -3 269 -2 288 15 300 12 9 54 13 125 13 58 0 106
3 106 7 0 4 13 3 29 -2 19 -5 33 -4 40 3z m524 -573 c-3 -11 -9 -20 -13 -20
-5 0 -6 9 -3 20 3 11 9 20 13 20 5 0 6 -9 3 -20z m-3 -40 c0 -5 -5 -10 -11
-10 -5 0 -7 5 -4 10 3 6 8 10 11 10 2 0 4 -4 4 -10z"/>
<path d="M2014 2648 l-19 -23 23 19 c21 18 27 26 19 26 -2 0 -12 -10 -23 -22z"/>
<path d="M1640 2645 c-7 -9 -8 -15 -2 -15 5 0 12 7 16 15 3 8 4 15 2 15 -2 0
-9 -7 -16 -15z"/>
<path d="M1470 2630 c-9 -6 -10 -10 -3 -10 6 0 15 5 18 10 8 12 4 12 -15 0z"/>
<path d="M1625 2604 c-22 -13 -33 -24 -25 -24 8 0 29 11 45 25 37 30 32 30
-20 -1z"/>
<path d="M1965 2600 c-10 -11 -16 -22 -13 -25 3 -3 13 6 22 20 20 30 16 32 -9
5z"/>
<path d="M2190 2605 c-11 -13 -10 -14 4 -9 9 3 16 10 16 15 0 13 -6 11 -20 -6z"/>
<path d="M1835 2600 c-3 -5 -1 -10 4 -10 6 0 11 5 11 10 0 6 -2 10 -4 10 -3 0
-8 -4 -11 -10z"/>
<path d="M1875 2600 c-3 -5 -1 -10 4 -10 6 0 11 5 11 10 0 6 -2 10 -4 10 -3 0
-8 -4 -11 -10z"/>
<path d="M1560 2570 c-8 -5 -12 -12 -9 -15 4 -3 12 1 19 10 14 17 11 19 -10 5z"/>
<path d="M1621 2566 c-7 -8 -22 -17 -34 -20 -14 -3 -30 -21 -41 -43 -10 -21
-15 -35 -11 -31 4 3 15 -2 26 -13 18 -18 36 -19 284 -19 252 0 266 1 285 20
22 22 25 46 10 70 -8 13 -49 15 -265 15 -140 0 -255 3 -255 7 0 4 8 12 18 17
9 6 12 11 6 11 -6 0 -17 -6 -23 -14z"/>
<path d="M1480 2529 c0 -5 5 -7 10 -4 6 3 10 8 10 11 0 2 -4 4 -10 4 -5 0 -10
-5 -10 -11z"/>
<path d="M1519 2523 c-13 -16 -12 -17 4 -4 9 7 17 15 17 17 0 8 -8 3 -21 -13z"/>
<path d="M1476 2475 c-11 -8 -15 -15 -9 -15 6 0 16 7 23 15 16 19 11 19 -14 0z"/>
<path d="M2230 2475 c-7 -9 -11 -17 -9 -20 3 -2 10 5 17 15 14 24 10 26 -8 5z"/>
<path d="M1476 2425 c-11 -8 -15 -15 -9 -15 6 0 16 7 23 15 16 19 11 19 -14 0z"/>
<path d="M2245 2411 c3 -5 -15 -31 -40 -56 -43 -46 -60 -70 -32 -46 8 6 17 7
21 3 4 -4 6 -2 4 4 -1 7 6 20 18 30 19 18 44 56 44 68 0 3 -5 6 -11 6 -5 0 -8
-4 -4 -9z"/>
<path d="M1560 2395 c-7 -9 -8 -15 -2 -15 5 0 12 7 16 15 3 8 4 15 2 15 -2 0
-9 -7 -16 -15z"/>
<path d="M1582 2380 c-18 -17 -29 -30 -25 -30 11 0 25 11 47 38 26 30 17 27
-22 -8z"/>
<path d="M1641 2390 c-14 -12 -18 -20 -10 -20 8 0 20 9 27 20 15 25 13 25 -17
0z"/>
<path d="M1736 2393 c-6 -14 -5 -15 5 -6 7 7 10 15 7 18 -3 3 -9 -2 -12 -12z"/>
<path d="M2045 2400 c-3 -6 1 -7 9 -4 18 7 21 14 7 14 -6 0 -13 -4 -16 -10z"/>
<path d="M2129 2393 c-13 -16 -12 -17 4 -4 9 7 17 15 17 17 0 8 -8 3 -21 -13z"/>
<path d="M1455 2390 c-3 -6 1 -7 9 -4 18 7 21 14 7 14 -6 0 -13 -4 -16 -10z"/>
<path d="M1879 2383 c-13 -17 -13 -17 6 -3 11 8 22 16 24 17 2 2 0 3 -6 3 -6
0 -17 -8 -24 -17z"/>
<path d="M1986 2385 c-11 -8 -17 -17 -14 -20 2 -3 13 4 23 15 21 23 18 25 -9
5z"/>
<path d="M2075 2390 c-3 -5 -15 -10 -25 -10 -10 0 -21 -4 -24 -9 -9 -14 42 0
55 15 6 8 9 14 6 14 -3 0 -9 -4 -12 -10z"/>
<path d="M2155 2380 c-3 -6 1 -7 9 -4 18 7 21 -6 6 -24 -5 -7 -3 -6 6 2 9 8
13 19 10 25 -9 14 -23 14 -31 1z"/>
<path d="M1705 2370 c-3 -5 -1 -10 4 -10 6 0 11 5 11 10 0 6 -2 10 -4 10 -3 0
-8 -4 -11 -10z"/>
<path d="M1799 2363 c-13 -16 -12 -17 4 -4 9 7 17 15 17 17 0 8 -8 3 -21 -13z"/>
<path d="M1729 2353 c-13 -16 -12 -17 4 -4 9 7 17 15 17 17 0 8 -8 3 -21 -13z"/>
<path d="M1477 2353 c-4 -3 -7 -11 -7 -17 0 -6 5 -5 12 2 6 6 9 14 7 17 -3 3
-9 2 -12 -2z"/>
<path d="M1590 2350 c-8 -5 -10 -10 -5 -10 6 0 17 5 25 10 8 5 11 10 5 10 -5
0 -17 -5 -25 -10z"/>
<path d="M2039 2348 c-1 -7 -1 -15 -1 -18 0 -3 -44 -6 -99 -7 -70 -1 -99 2
-99 10 0 8 -3 8 -8 2 -10 -14 -82 -15 -82 -2 0 7 -4 7 -12 -1 -16 -16 -41 -16
-32 1 6 9 4 9 -7 1 -20 -15 -69 -16 -69 -2 0 9 -3 9 -12 0 -7 -7 -20 -12 -29
-12 -10 0 -28 -14 -40 -31 -15 -22 -27 -29 -41 -26 -15 4 -22 -2 -30 -23 -6
-19 -15 -27 -24 -23 -8 3 -14 0 -14 -6 0 -6 10 -11 23 -11 22 0 22 0 -3 -20
-16 -12 -20 -20 -11 -20 12 0 12 -3 3 -12 -16 -16 -15 -28 3 -28 8 0 15 -4 15
-9 0 -5 9 -11 21 -14 12 -3 18 -3 15 0 -3 3 5 14 17 24 l22 19 -28 -10 c-36
-13 -40 -13 -31 1 4 8 -1 9 -17 4 -19 -5 -21 -4 -9 4 8 6 35 11 60 11 29 0 40
3 31 9 -11 7 -11 9 0 14 9 3 10 6 2 6 -6 1 -15 -3 -18 -9 -3 -5 -11 -10 -17
-10 -7 0 -6 6 2 15 16 20 6 19 -14 -1 -9 -8 -24 -14 -34 -11 -15 3 -15 5 3 12
11 4 32 19 47 33 14 13 32 21 38 17 6 -4 134 -7 283 -6 262 1 273 2 289 22 11
12 17 34 15 53 -2 30 -3 31 -52 32 -41 0 -49 3 -47 17 2 9 0 17 -3 17 -3 0 -6
-6 -6 -12z m-491 -100 c-6 -18 -57 -53 -65 -44 -4 4 -1 11 7 16 8 6 11 10 5
10 -11 1 35 29 48 30 5 0 7 -5 5 -12z"/>
<path d="M2065 2350 c-8 -13 5 -13 25 0 13 8 13 10 -2 10 -9 0 -20 -4 -23 -10z"/>
<path d="M1544 2319 c-10 -12 -28 -25 -38 -29 -11 -4 -15 -9 -9 -13 5 -3 25 9
43 28 19 19 31 35 29 35 -3 0 -14 -10 -25 -21z"/>
<path d="M1496 2318 c3 -5 10 -6 15 -3 13 9 11 12 -6 12 -8 0 -12 -4 -9 -9z"/>
<path d="M1466 2304 c-4 -9 -4 -19 -1 -22 2 -3 7 3 11 12 4 9 4 19 1 22 -2 3
-7 -3 -11 -12z"/>
<path d="M2230 2279 c0 -5 5 -7 10 -4 6 3 10 8 10 11 0 2 -4 4 -10 4 -5 0 -10
-5 -10 -11z"/>
<path d="M1443 2251 c1 -12 6 -20 12 -18 14 5 13 29 -2 34 -7 3 -11 -4 -10
-16z"/>
<path d="M2177 2240 c-3 -11 -3 -20 -1 -20 2 0 8 9 14 20 6 11 7 20 2 20 -6 0
-12 -9 -15 -20z"/>
<path d="M2136 2219 c-11 -11 -15 -19 -9 -19 12 0 38 28 32 34 -2 2 -13 -5
-23 -15z"/>
<path d="M2174 2195 c-11 -11 -24 -27 -29 -35 -4 -8 2 -5 14 8 23 24 68 32 55
10 -6 -10 -3 -9 8 0 9 8 14 20 11 29 -5 12 -7 12 -14 1 -6 -8 -12 -9 -16 -3
-5 7 -16 3 -29 -10z"/>
<path d="M1630 2191 c0 -7 -7 -11 -14 -8 -10 4 -13 1 -9 -8 3 -10 -5 -18 -23
-25 -26 -10 -53 -36 -54 -52 0 -4 10 2 23 13 12 11 38 33 57 49 19 15 32 32
27 36 -4 4 -7 2 -7 -5z"/>
<path d="M1999 2181 c-13 -11 -22 -21 -19 -23 3 -2 16 6 29 19 29 28 22 30
-10 4z"/>
<path d="M1723 2180 c-34 -14 -28 -21 7 -9 17 6 30 13 30 15 0 6 -12 4 -37 -6z"/>
<path d="M1817 2183 c-4 -3 -7 -11 -7 -17 0 -6 5 -5 12 2 6 6 9 14 7 17 -3 3
-9 2 -12 -2z"/>
<path d="M2065 2170 c-3 -5 -1 -10 4 -10 6 0 11 5 11 10 0 6 -2 10 -4 10 -3 0
-8 -4 -11 -10z"/>
<path d="M2180 2170 c-9 -6 -10 -10 -3 -10 6 0 15 5 18 10 8 12 4 12 -15 0z"/>
<path d="M1750 2150 c0 -5 5 -10 11 -10 5 0 7 5 4 10 -3 6 -8 10 -11 10 -2 0
-4 -4 -4 -10z"/>
<path d="M2186 2130 c-19 -39 -6 -39 16 0 9 17 13 30 8 30 -5 0 -15 -13 -24
-30z"/>
<path d="M1815 2139 c-17 -6 -16 -8 7 -8 15 -1 29 3 32 7 6 11 -14 11 -39 1z"/>
<path d="M1900 2129 c-22 -18 -22 -19 -3 -10 12 6 25 16 28 21 9 15 3 12 -25
-11z"/>
<path d="M1996 2123 c-4 -9 -2 -20 4 -25 5 -4 8 -5 5 -2 -2 4 0 15 6 25 6 11
6 19 0 19 -5 0 -12 -8 -15 -17z"/>
<path d="M2146 2125 c4 -9 0 -15 -10 -15 -9 0 -16 -8 -15 -17 0 -11 3 -13 6
-5 2 6 10 12 16 12 7 0 18 9 25 20 11 17 10 20 -8 20 -13 0 -18 -5 -14 -15z"/>
<path d="M1581 2117 c-14 -6 -26 -19 -28 -27 -3 -10 -1 -9 7 3 12 19 35 24 24
5 -4 -7 2 -5 13 5 11 9 23 14 28 10 4 -5 5 -2 1 5 -9 15 -15 15 -45 -1z"/>
<path d="M1726 2105 c-9 -14 -13 -25 -8 -25 5 0 14 11 20 25 6 14 10 25 8 25
-2 0 -11 -11 -20 -25z"/>
<path d="M2030 2115 c-7 -9 -8 -15 -2 -15 5 0 12 7 16 15 3 8 4 15 2 15 -2 0
-9 -7 -16 -15z"/>
<path d="M2095 2120 c-3 -5 -2 -10 4 -10 5 0 13 5 16 10 3 6 2 10 -4 10 -5 0
-13 -4 -16 -10z"/>
<path d="M1646 2112 c-3 -5 1 -9 9 -9 8 0 12 4 9 9 -3 4 -7 8 -9 8 -2 0 -6 -4
-9 -8z"/>
<path d="M1685 2100 c-10 -11 -14 -20 -9 -20 5 0 15 9 22 20 7 11 11 20 9 20
-2 0 -12 -9 -22 -20z"/>
<path d="M1779 2103 c-12 -16 -12 -17 2 -6 9 7 20 9 24 5 5 -4 5 -1 1 6 -9 16
-11 15 -27 -5z"/>
<path d="M2059 2115 c-1 -3 -2 -8 -3 -12 -1 -5 -5 -14 -9 -20 -6 -9 -3 -11 7
-7 8 3 14 14 13 25 -1 18 -5 25 -8 14z"/>
<path d="M2191 2094 c-15 -15 -18 -24 -9 -24 12 0 43 38 36 45 -2 2 -14 -7
-27 -21z"/>
<path d="M1815 2090 c-3 -6 1 -7 9 -4 18 7 21 14 7 14 -6 0 -13 -4 -16 -10z"/>
<path d="M2085 2090 c-3 -5 -1 -10 4 -10 6 0 11 5 11 10 0 6 -2 10 -4 10 -3 0
-8 -4 -11 -10z"/>
<path d="M3360 2540 c-19 -19 -20 -33 -20 -298 0 -258 1 -280 18 -295 16 -15
47 -17 223 -17 228 0 236 2 245 62 5 30 2 41 -19 62 -25 25 -30 26 -147 26
-67 0 -130 5 -141 10 -18 10 -19 23 -19 218 0 196 -1 210 -20 230 -27 29 -92
30 -120 2z"/>
<path d="M2840 2005 c-16 -19 -4 -35 25 -35 13 0 27 5 30 10 8 13 -13 40 -30
40 -7 0 -18 -7 -25 -15z"/>
<path d="M3410 1465 c-10 -12 -10 -21 -1 -41 13 -28 38 -29 55 -1 22 35 -27
74 -54 42z"/>
<path d="M945 2460 c-3 -5 -1 -10 4 -10 6 0 11 5 11 10 0 6 -2 10 -4 10 -3 0
-8 -4 -11 -10z"/>
<path d="M985 2012 c-5 -4 -17 -16 -25 -27 -11 -15 -7 -14 13 4 24 22 32 31
25 31 -2 0 -7 -4 -13 -8z"/>
<path d="M951 1914 c0 -11 3 -14 6 -6 3 7 2 16 -1 19 -3 4 -6 -2 -5 -13z"/>
<path d="M1296 1623 c-6 -14 -5 -15 5 -6 7 7 10 15 7 18 -3 3 -9 -2 -12 -12z"/>
<path d="M1490 1589 c0 -5 5 -7 10 -4 6 3 10 8 10 11 0 2 -4 4 -10 4 -5 0 -10
-5 -10 -11z"/>
<path d="M4061 3994 c0 -11 3 -14 6 -6 3 7 2 16 -1 19 -3 4 -6 -2 -5 -13z"/>
<path d="M4060 3949 c0 -5 5 -7 10 -4 6 3 10 8 10 11 0 2 -4 4 -10 4 -5 0 -10
-5 -10 -11z"/>
<path d="M4067 3924 c-3 -4 -6 -115 -6 -248 0 -132 4 -232 8 -221 5 11 7 30 5
43 -3 13 1 22 8 22 10 0 10 2 -1 9 -9 6 -11 21 -7 50 3 23 8 46 10 50 3 4 1
13 -4 21 -5 9 -5 19 2 27 7 9 7 13 -1 13 -11 0 -8 60 4 80 3 5 1 11 -3 14 -5
3 -8 37 -7 76 1 38 1 70 0 70 -1 0 -4 -3 -8 -6z"/>
<path d="M4062 3405 c0 -16 2 -22 5 -12 2 9 2 23 0 30 -3 6 -5 -1 -5 -18z"/>
<path d="M4060 3245 c0 -71 3 -126 6 -122 8 8 8 236 0 244 -3 3 -6 -51 -6
-122z"/>
<path d="M4063 3040 c0 -25 2 -35 4 -22 2 12 2 32 0 45 -2 12 -4 2 -4 -23z"/>
<path d="M4062 2955 c0 -16 2 -22 5 -12 2 9 2 23 0 30 -3 6 -5 -1 -5 -18z"/>
<path d="M4062 2890 c0 -19 2 -27 5 -17 2 9 2 25 0 35 -3 9 -5 1 -5 -18z"/>
<path d="M1988 1413 c7 -3 16 -2 19 1 4 3 -2 6 -13 5 -11 0 -14 -3 -6 -6z"/>
<path d="M2273 1413 c9 -2 25 -2 35 0 9 3 1 5 -18 5 -19 0 -27 -2 -17 -5z"/>
<path d="M2568 1413 c7 -3 16 -2 19 1 4 3 -2 6 -13 5 -11 0 -14 -3 -6 -6z"/>
<path d="M2608 1413 c6 -2 18 -2 25 0 6 3 1 5 -13 5 -14 0 -19 -2 -12 -5z"/>
</g>
</svg>
